<?xml version="1.0" encoding="iso-8859-1"?>
<!-- Generator: Adobe Illustrator 19.0.0, SVG Export Plug-In . SVG Version: 6.00 Build 0)  -->
<svg version="1.1" id="Layer_1" xmlns="http://www.w3.org/2000/svg" xmlns:xlink="http://www.w3.org/1999/xlink" x="0px" y="0px"
	 viewBox="0 0 512 512" style="enable-background:new 0 0 512 512;" xml:space="preserve">
<g>
	<g>
		<path d="M438.714,112.439h-36.673C414.776,57.254,373.353,0,312.22,0c-61.141,0-102.555,57.258-89.821,112.439h-92.893
			c-9.425,0-17.067,7.641-17.067,17.067v92.887C57.291,209.69,0,251.059,0,312.22c0,61.223,57.327,102.509,112.44,89.828v92.886
			c0,9.425,7.641,17.067,17.067,17.067h117.781c13.108,0,21.346-14.229,14.781-25.599c-22.151-38.374,5.531-86.84,50.153-86.84
			c44.677,0,72.279,48.51,50.152,86.84C355.82,497.755,364.025,512,377.154,512h117.779c9.425,0,17.067-7.641,17.067-17.067V185.725
			C512,145.316,479.123,112.439,438.714,112.439z"/>
	</g>
</g>
<g>
</g>
<g>
</g>
<g>
</g>
<g>
</g>
<g>
</g>
<g>
</g>
<g>
</g>
<g>
</g>
<g>
</g>
<g>
</g>
<g>
</g>
<g>
</g>
<g>
</g>
<g>
</g>
<g>
</g>
</svg>
